<?xml version="1.0" encoding="utf-8"?>
<!-- Generator: Adobe Illustrator 23.0.1, SVG Export Plug-In . SVG Version: 6.00 Build 0)  -->
<svg version="1.0" id="Layer_1" xmlns="http://www.w3.org/2000/svg" xmlns:xlink="http://www.w3.org/1999/xlink" x="0px" y="0px"
	 viewBox="0 0 160 320" enable-background="new 0 0 160 320" xml:space="preserve">
<g>
	<rect x="60" fill="#E11E26" width="10" height="10"/>
	<rect x="70" fill="#E11E26" width="10" height="10"/>
	<rect x="80" fill="#E11E26" width="10" height="10"/>
	<rect x="90" fill="#E11E26" width="10" height="10"/>
	<rect x="100" fill="#E11E26" width="10" height="10"/>
	<rect x="90" y="10" fill="#E11E26" width="10" height="10"/>
	<rect x="80" y="10" fill="#E11E26" width="10" height="10"/>
	<rect x="70" y="10" fill="#E11E26" width="10" height="10"/>
	<rect x="60" y="10" fill="#E11E26" width="10" height="10"/>
	<rect x="50" y="10" fill="#E11E26" width="10" height="10"/>
	<rect x="40" y="10" fill="#E11E26" width="10" height="10"/>
	<rect x="30" y="20" fill="#E11E26" width="10" height="10"/>
	<rect x="40" y="20" fill="#E11E26" width="10" height="10"/>
	<rect x="50" y="20" fill="#E11E26" width="10" height="10"/>
	<rect x="60" y="20" fill="#E11E26" width="10" height="10"/>
	<rect x="70" y="20" fill="#E11E26" width="10" height="10"/>
	<rect x="80" y="20" fill="#E11E26" width="10" height="10"/>
	<rect x="30" y="30" fill="#E11E26" width="10" height="10"/>
	<rect x="40" y="30" fill="#E11E26" width="10" height="10"/>
	<rect x="50" y="30" fill="#E11E26" width="10" height="10"/>
	<rect x="60" y="30" fill="#E11E26" width="10" height="10"/>
	<rect x="70" y="30" fill="#E11E26" width="10" height="10"/>
	<rect x="80" y="30" fill="#E11E26" width="10" height="10"/>
	<rect x="90" y="30" fill="#E11E26" width="10" height="10"/>
	<rect x="100" y="30" fill="#E11E26" width="10" height="10"/>
	<rect x="110" y="30" fill="#E11E26" width="10" height="10"/>
	<rect x="120" y="30" fill="#E11E26" width="10" height="10"/>
	<rect x="120" y="140" fill="#E11E26" width="10" height="10"/>
	<rect x="130" y="160" fill="#E11E26" width="10" height="10"/>
	<rect x="130" y="170" fill="#E11E26" width="10" height="10"/>
	<rect x="130" y="180" fill="#E11E26" width="10" height="10"/>
	<rect x="140" y="170" fill="#E11E26" width="10" height="10"/>
	<rect x="150" y="160" fill="#E11E26" width="10" height="10"/>
	<rect x="80" y="120" fill="#E11E26" width="10" height="10"/>
	<rect x="70" y="120" fill="#5259A7" width="10" height="10"/>
	<rect x="60" y="120" fill="#5259A7" width="10" height="10"/>
	<rect x="50" y="120" fill="#5259A7" width="10" height="10"/>
	<rect x="40" y="120" fill="#5259A7" width="10" height="10"/>
	<rect x="100" y="120" fill="#5259A7" width="10" height="10"/>
	<rect x="110" y="130" fill="#5259A7" width="10" height="10"/>
	<rect x="110" y="140" fill="#5259A7" width="10" height="10"/>
	<rect x="120" y="150" fill="#5259A7" width="10" height="10"/>
	<rect x="120" y="160" fill="#5259A7" width="10" height="10"/>
	<rect x="120" y="170" fill="#5259A7" width="10" height="10"/>
	<rect x="120" y="190" fill="#5259A7" width="10" height="10"/>
	<rect x="120" y="200" fill="#5259A7" width="10" height="10"/>
	<rect x="120" y="210" fill="#5259A7" width="10" height="10"/>
	<rect x="120" y="220" fill="#5259A7" width="10" height="10"/>
	<rect x="110" y="220" fill="#5259A7" width="10" height="10"/>
	<rect x="100" y="220" fill="#5259A7" width="10" height="10"/>
	<rect x="100" y="230" fill="#5259A7" width="10" height="10"/>
	<rect x="100" y="240" fill="#5259A7" width="10" height="10"/>
	<rect x="100" y="250" fill="#5259A7" width="10" height="10"/>
	<rect x="100" y="260" fill="#5259A7" width="10" height="10"/>
	<rect x="90" y="260" fill="#5259A7" width="10" height="10"/>
	<rect x="80" y="260" fill="#5259A7" width="10" height="10"/>
	<rect x="80" y="250" fill="#5259A7" width="10" height="10"/>
	<rect x="90" y="250" fill="#5259A7" width="10" height="10"/>
	<rect x="90" y="240" fill="#5259A7" width="10" height="10"/>
	<rect x="80" y="240" fill="#5259A7" width="10" height="10"/>
	<rect x="80" y="230" fill="#5259A7" width="10" height="10"/>
	<rect x="90" y="230" fill="#5259A7" width="10" height="10"/>
	<rect x="90" y="220" fill="#5259A7" width="10" height="10"/>
	<rect x="80" y="220" fill="#5259A7" width="10" height="10"/>
	<rect x="80" y="210" fill="#5259A7" width="10" height="10"/>
	<rect x="90" y="210" fill="#5259A7" width="10" height="10"/>
	<rect x="100" y="210" fill="#5259A7" width="10" height="10"/>
	<rect x="110" y="210" fill="#5259A7" width="10" height="10"/>
	<rect x="110" y="200" fill="#5259A7" width="10" height="10"/>
	<rect x="110" y="190" fill="#5259A7" width="10" height="10"/>
	<rect x="100" y="190" fill="#5259A7" width="10" height="10"/>
	<rect x="100" y="180" fill="#5259A7" width="10" height="10"/>
	<rect x="80" y="180" fill="#5259A7" width="10" height="10"/>
	<rect x="70" y="180" fill="#5259A7" width="10" height="10"/>
	<rect x="70" y="170" fill="#5259A7" width="10" height="10"/>
	<rect x="80" y="170" fill="#5259A7" width="10" height="10"/>
	<rect x="90" y="170" fill="#5259A7" width="10" height="10"/>
	<rect x="90" y="160" fill="#5259A7" width="10" height="10"/>
	<rect x="90" y="150" fill="#5259A7" width="10" height="10"/>
	<rect x="90" y="140" fill="#5259A7" width="10" height="10"/>
	<rect x="80" y="140" fill="#5259A7" width="10" height="10"/>
	<rect x="80" y="130" fill="#5259A7" width="10" height="10"/>
	<rect x="80" y="40" fill="#5259A7" width="10" height="10"/>
	<rect x="80" y="50" fill="#5259A7" width="10" height="10"/>
	<rect x="90" y="50" fill="#5259A7" width="10" height="10"/>
	<rect x="70" y="130" fill="#5259A7" width="10" height="10"/>
	<rect x="80" y="150" fill="#5259A7" width="10" height="10"/>
	<rect x="80" y="160" fill="#5259A7" width="10" height="10"/>
	<rect x="60" y="180" fill="#5259A7" width="10" height="10"/>
	<rect x="40" y="190" fill="#5259A7" width="10" height="10"/>
	<rect x="50" y="190" fill="#5259A7" width="10" height="10"/>
	<rect x="60" y="190" fill="#5259A7" width="10" height="10"/>
	<rect x="70" y="190" fill="#5259A7" width="10" height="10"/>
	<rect x="80" y="190" fill="#5259A7" width="10" height="10"/>
	<rect x="90" y="190" fill="#5259A7" width="10" height="10"/>
	<rect x="100" y="200" fill="#5259A7" width="10" height="10"/>
	<rect x="90" y="200" fill="#5259A7" width="10" height="10"/>
	<rect x="80" y="200" fill="#5259A7" width="10" height="10"/>
	<rect x="70" y="200" fill="#5259A7" width="10" height="10"/>
	<rect x="60" y="200" fill="#5259A7" width="10" height="10"/>
	<rect x="50" y="200" fill="#5259A7" width="10" height="10"/>
	<rect x="50" y="210" fill="#5259A7" width="10" height="10"/>
	<rect x="50" y="220" fill="#5259A7" width="10" height="10"/>
	<rect x="50" y="230" fill="#5259A7" width="10" height="10"/>
	<rect x="50" y="240" fill="#5259A7" width="10" height="10"/>
	<rect x="60" y="240" fill="#5259A7" width="10" height="10"/>
	<rect x="60" y="230" fill="#5259A7" width="10" height="10"/>
	<rect x="60" y="220" fill="#5259A7" width="10" height="10"/>
	<rect x="60" y="210" fill="#5259A7" width="10" height="10"/>
	<rect x="70" y="210" fill="#5259A7" width="10" height="10"/>
	<rect x="70" y="220" fill="#5259A7" width="10" height="10"/>
	<rect x="70" y="230" fill="#5259A7" width="10" height="10"/>
	<rect x="70" y="240" fill="#5259A7" width="10" height="10"/>
	<rect x="70" y="250" fill="#5259A7" width="10" height="10"/>
	<rect x="60" y="250" fill="#5259A7" width="10" height="10"/>
	<rect x="40" y="230" fill="#5259A7" width="10" height="10"/>
	<rect x="30" y="240" fill="#5259A7" width="10" height="10"/>
	<rect x="30" y="250" fill="#5259A7" width="10" height="10"/>
	<rect x="30" y="260" fill="#5259A7" width="10" height="10"/>
	<rect x="40" y="260" fill="#5259A7" width="10" height="10"/>
	<rect x="40" y="270" fill="#5259A7" width="10" height="10"/>
	<rect x="50" y="270" fill="#5259A7" width="10" height="10"/>
	<rect x="50" y="280" fill="#5259A7" width="10" height="10"/>
	<rect x="60" y="270" fill="#5259A7" width="10" height="10"/>
	<rect x="70" y="270" fill="#5259A7" width="10" height="10"/>
	<rect x="50" y="260" fill="#5259A7" width="10" height="10"/>
	<rect x="40" y="250" fill="#5259A7" width="10" height="10"/>
	<rect x="90" y="120" fill="#E11E26" width="10" height="10"/>
	<rect x="90" y="130" fill="#E11E26" width="10" height="10"/>
	<rect x="100" y="130" fill="#E11E26" width="10" height="10"/>
	<rect x="100" y="140" fill="#E11E26" width="10" height="10"/>
	<rect x="100" y="150" fill="#E11E26" width="10" height="10"/>
	<rect x="100" y="160" fill="#E11E26" width="10" height="10"/>
	<rect x="100" y="170" fill="#E11E26" width="10" height="10"/>
	<rect x="110" y="170" fill="#E11E26" width="10" height="10"/>
	<rect x="110" y="180" fill="#E11E26" width="10" height="10"/>
	<rect x="110" y="160" fill="#E11E26" width="10" height="10"/>
	<rect x="110" y="150" fill="#E11E26" width="10" height="10"/>
	<rect x="60" y="130" fill="#E11E26" width="10" height="10"/>
	<rect x="50" y="130" fill="#E11E26" width="10" height="10"/>
	<rect x="40" y="130" fill="#E11E26" width="10" height="10"/>
	<rect x="30" y="130" fill="#E11E26" width="10" height="10"/>
	<rect x="20" y="140" fill="#E11E26" width="10" height="10"/>
	<rect x="30" y="140" fill="#E11E26" width="10" height="10"/>
	<rect x="40" y="140" fill="#E11E26" width="10" height="10"/>
	<rect x="50" y="140" fill="#E11E26" width="10" height="10"/>
	<rect x="60" y="140" fill="#E11E26" width="10" height="10"/>
	<rect x="70" y="140" fill="#E11E26" width="10" height="10"/>
	<rect x="70" y="150" fill="#E11E26" width="10" height="10"/>
	<rect x="70" y="160" fill="#E11E26" width="10" height="10"/>
	<rect x="60" y="150" fill="#E11E26" width="10" height="10"/>
	<rect x="50" y="150" fill="#E11E26" width="10" height="10"/>
	<rect x="40" y="150" fill="#E11E26" width="10" height="10"/>
	<rect x="30" y="150" fill="#E11E26" width="10" height="10"/>
	<rect x="20" y="150" fill="#E11E26" width="10" height="10"/>
	<rect x="10" y="150" fill="#E11E26" width="10" height="10"/>
	<rect x="10" y="160" fill="#E11E26" width="10" height="10"/>
	<rect x="20" y="160" fill="#E11E26" width="10" height="10"/>
	<rect x="30" y="160" fill="#E11E26" width="10" height="10"/>
	<rect x="40" y="160" fill="#E11E26" width="10" height="10"/>
	<rect x="50" y="160" fill="#E11E26" width="10" height="10"/>
	<rect x="60" y="160" fill="#E11E26" width="10" height="10"/>
	<rect x="60" y="170" fill="#E11E26" width="10" height="10"/>
	<rect x="50" y="170" fill="#E11E26" width="10" height="10"/>
	<rect x="40" y="170" fill="#E11E26" width="10" height="10"/>
	<rect x="30" y="170" fill="#E11E26" width="10" height="10"/>
	<rect x="20" y="170" fill="#E11E26" width="10" height="10"/>
	<rect x="10" y="170" fill="#E11E26" width="10" height="10"/>
	<rect x="10" y="180" fill="#E11E26" width="10" height="10"/>
	<rect y="180" fill="#E11E26" width="10" height="10"/>
	<rect x="20" y="180" fill="#E11E26" width="10" height="10"/>
	<rect x="30" y="180" fill="#E11E26" width="10" height="10"/>
	<rect x="40" y="180" fill="#E11E26" width="10" height="10"/>
	<rect x="50" y="180" fill="#E11E26" width="10" height="10"/>
	<rect x="30" y="190" fill="#E11E26" width="10" height="10"/>
	<rect x="20" y="190" fill="#E11E26" width="10" height="10"/>
	<rect x="10" y="190" fill="#E11E26" width="10" height="10"/>
	<rect y="190" fill="#E11E26" width="10" height="10"/>
	<rect x="130" y="30" fill="#E11E26" width="10" height="10"/>
	<rect x="100" y="10" fill="#FCED00" width="10" height="10"/>
	<rect x="100" y="20" fill="#FCED00" width="10" height="10"/>
	<rect x="90" y="20" fill="#FCED00" width="10" height="10"/>
	<rect x="90" y="180" fill="#FCED00" width="10" height="10"/>
	<rect x="120" y="180" fill="#FCED00" width="10" height="10"/>
	<rect x="30" y="40" fill="#8C3F1E" width="10" height="10"/>
	<rect x="40" y="40" fill="#8C3F1E" width="10" height="10"/>
	<rect x="50" y="40" fill="#8C3F1E" width="10" height="10"/>
	<rect x="50" y="50" fill="#8C3F1E" width="10" height="10"/>
	<rect x="50" y="60" fill="#8C3F1E" width="10" height="10"/>
	<rect x="50" y="70" fill="#8C3F1E" width="10" height="10"/>
	<rect x="60" y="70" fill="#8C3F1E" width="10" height="10"/>
	<rect x="60" y="60" fill="#8C3F1E" width="10" height="10"/>
	<rect x="20" y="50" fill="#8C3F1E" width="10" height="10"/>
	<rect x="20" y="60" fill="#8C3F1E" width="10" height="10"/>
	<rect x="20" y="70" fill="#8C3F1E" width="10" height="10"/>
	<rect x="20" y="80" fill="#8C3F1E" width="10" height="10"/>
	<rect x="20" y="90" fill="#8C3F1E" width="10" height="10"/>
	<rect x="10" y="90" fill="#8C3F1E" width="10" height="10"/>
	<rect x="10" y="80" fill="#8C3F1E" width="10" height="10"/>
	<rect x="10" y="70" fill="#8C3F1E" width="10" height="10"/>
	<rect x="30" y="90" fill="#8C3F1E" width="10" height="10"/>
	<rect x="30" y="100" fill="#8C3F1E" width="10" height="10"/>
	<rect x="40" y="100" fill="#8C3F1E" width="10" height="10"/>
	<rect x="50" y="110" fill="#8C3F1E" width="10" height="10"/>
	<rect x="60" y="110" fill="#8C3F1E" width="10" height="10"/>
	<rect x="70" y="110" fill="#8C3F1E" width="10" height="10"/>
	<rect x="50" y="100" fill="#FCC288" width="10" height="10"/>
	<rect x="30" y="50" fill="#FCC288" width="10" height="10"/>
	<rect x="40" y="50" fill="#FCC288" width="10" height="10"/>
	<rect x="40" y="60" fill="#FCC288" width="10" height="10"/>
	<rect x="30" y="60" fill="#FCC288" width="10" height="10"/>
	<rect x="30" y="70" fill="#FCC288" width="10" height="10"/>
	<rect x="40" y="70" fill="#FCC288" width="10" height="10"/>
	<rect x="40" y="80" fill="#FCC288" width="10" height="10"/>
	<rect x="30" y="80" fill="#FCC288" width="10" height="10"/>
	<rect x="40" y="90" fill="#FCC288" width="10" height="10"/>
	<rect x="50" y="90" fill="#FCC288" width="10" height="10"/>
	<rect x="50" y="80" fill="#FCC288" width="10" height="10"/>
	<rect x="60" y="80" fill="#FCC288" width="10" height="10"/>
	<rect x="60" y="90" fill="#FCC288" width="10" height="10"/>
	<rect x="60" y="100" fill="#FCC288" width="10" height="10"/>
	<rect x="70" y="100" fill="#FCC288" width="10" height="10"/>
	<rect x="70" y="90" fill="#FCC288" width="10" height="10"/>
	<rect x="70" y="80" fill="#FCC288" width="10" height="10"/>
	<rect x="70" y="70" fill="#FCC288" width="10" height="10"/>
	<rect x="70" y="60" fill="#FCC288" width="10" height="10"/>
	<rect x="70" y="50" fill="#FCC288" width="10" height="10"/>
	<rect x="60" y="50" fill="#FCC288" width="10" height="10"/>
	<rect x="60" y="40" fill="#FCC288" width="10" height="10"/>
	<rect x="70" y="40" fill="#FCC288" width="10" height="10"/>
	<rect x="90" y="40" fill="#FCC288" width="10" height="10"/>
	<rect x="100" y="40" fill="#FCC288" width="10" height="10"/>
	<rect x="110" y="40" fill="#FCC288" width="10" height="10"/>
	<rect x="100" y="50" fill="#FCC288" width="10" height="10"/>
	<rect x="110" y="50" fill="#FCC288" width="10" height="10"/>
	<rect x="120" y="50" fill="#FCC288" width="10" height="10"/>
	<rect x="130" y="50" fill="#FCC288" width="10" height="10"/>
	<rect x="140" y="60" fill="#FCC288" width="10" height="10"/>
	<rect x="130" y="60" fill="#FCC288" width="10" height="10"/>
	<rect x="130" y="70" fill="#FCC288" width="10" height="10"/>
	<rect x="140" y="70" fill="#FCC288" width="10" height="10"/>
	<rect x="120" y="60" fill="#FCC288" width="10" height="10"/>
	<rect x="110" y="60" fill="#FCC288" width="10" height="10"/>
	<rect x="100" y="60" fill="#FCC288" width="10" height="10"/>
	<rect x="90" y="60" fill="#FCC288" width="10" height="10"/>
	<rect x="80" y="60" fill="#FCC288" width="10" height="10"/>
	<rect x="80" y="70" fill="#FCC288" width="10" height="10"/>
	<rect x="90" y="70" fill="#FCC288" width="10" height="10"/>
	<rect x="110" y="70" fill="#FCC288" width="10" height="10"/>
	<rect x="120" y="70" fill="#FCC288" width="10" height="10"/>
	<rect x="80" y="90" fill="#FCC288" width="10" height="10"/>
	<rect x="80" y="100" fill="#FCC288" width="10" height="10"/>
	<rect x="80" y="110" fill="#FCC288" width="10" height="10"/>
	<rect x="90" y="110" fill="#FCC288" width="10" height="10"/>
	<rect x="90" y="100" fill="#FCC288" width="10" height="10"/>
	<rect x="100" y="100" fill="#FCC288" width="10" height="10"/>
	<rect x="110" y="100" fill="#FCC288" width="10" height="10"/>
	<rect x="120" y="100" fill="#FCC288" width="10" height="10"/>
	<rect x="140" y="120" fill="#FCC288" width="10" height="10"/>
	<rect x="140" y="130" fill="#FCC288" width="10" height="10"/>
	<rect x="140" y="140" fill="#FCC288" width="10" height="10"/>
	<rect x="140" y="150" fill="#FCC288" width="10" height="10"/>
	<rect x="140" y="160" fill="#FCC288" width="10" height="10"/>
	<rect x="150" y="150" fill="#FCC288" width="10" height="10"/>
	<rect x="150" y="140" fill="#FCC288" width="10" height="10"/>
	<rect x="150" y="130" fill="#FCC288" width="10" height="10"/>
	<rect x="130" y="130" fill="#FCC288" width="10" height="10"/>
	<rect x="130" y="140" fill="#FCC288" width="10" height="10"/>
	<rect x="130" y="150" fill="#FCC288" width="10" height="10"/>
	<rect x="40" y="200" fill="#FCC288" width="10" height="10"/>
	<rect x="30" y="200" fill="#FCC288" width="10" height="10"/>
	<rect x="20" y="200" fill="#FCC288" width="10" height="10"/>
	<rect x="10" y="200" fill="#FCC288" width="10" height="10"/>
	<rect y="200" fill="#FCC288" width="10" height="10"/>
	<rect y="210" fill="#FCC288" width="10" height="10"/>
	<rect x="10" y="210" fill="#FCC288" width="10" height="10"/>
	<rect x="20" y="210" fill="#FCC288" width="10" height="10"/>
	<rect x="30" y="210" fill="#FCC288" width="10" height="10"/>
	<rect x="40" y="210" fill="#FCC288" width="10" height="10"/>
	<rect x="40" y="220" fill="#FCC288" width="10" height="10"/>
	<rect y="220" fill="#FCC288" width="10" height="10"/>
	<rect x="10" y="220" fill="#FCC288" width="10" height="10"/>
	<rect x="20" y="220" fill="#FCC288" width="10" height="10"/>
	<rect x="30" y="220" fill="#FCC288" width="10" height="10"/>
	<rect x="30" y="230" fill="#FCC288" width="10" height="10"/>
	<rect x="20" y="230" fill="#FCC288" width="10" height="10"/>
	<rect x="10" y="230" fill="#FCC288" width="10" height="10"/>
	<rect x="20" y="250" fill="#8C3F1E" width="10" height="10"/>
	<rect x="20" y="260" fill="#8C3F1E" width="10" height="10"/>
	<rect x="10" y="260" fill="#8C3F1E" width="10" height="10"/>
	<rect y="260" fill="#8C3F1E" width="10" height="10"/>
	<rect y="270" fill="#8C3F1E" width="10" height="10"/>
	<rect x="10" y="270" fill="#8C3F1E" width="10" height="10"/>
	<rect x="20" y="270" fill="#8C3F1E" width="10" height="10"/>
	<rect x="30" y="270" fill="#8C3F1E" width="10" height="10"/>
	<rect x="40" y="240" fill="#8C3F1E" width="10" height="10"/>
	<rect x="50" y="250" fill="#8C3F1E" width="10" height="10"/>
	<rect x="60" y="260" fill="#8C3F1E" width="10" height="10"/>
	<rect x="70" y="260" fill="#8C3F1E" width="10" height="10"/>
	<rect x="30" y="280" fill="#8C3F1E" width="10" height="10"/>
	<rect x="20" y="280" fill="#8C3F1E" width="10" height="10"/>
	<rect x="10" y="280" fill="#8C3F1E" width="10" height="10"/>
	<rect y="280" fill="#8C3F1E" width="10" height="10"/>
	<rect x="40" y="280" fill="#8C3F1E" width="10" height="10"/>
	<rect x="30" y="290" fill="#8C3F1E" width="10" height="10"/>
	<rect x="20" y="290" fill="#8C3F1E" width="10" height="10"/>
	<rect x="10" y="290" fill="#8C3F1E" width="10" height="10"/>
	<rect x="10" y="300" fill="#8C3F1E" width="10" height="10"/>
	<rect x="20" y="300" fill="#8C3F1E" width="10" height="10"/>
	<rect x="30" y="300" fill="#8C3F1E" width="10" height="10"/>
	<rect x="20" y="310" fill="#8C3F1E" width="10" height="10"/>
	<rect x="30" y="310" fill="#8C3F1E" width="10" height="10"/>
	<rect x="40" y="310" fill="#8C3F1E" width="10" height="10"/>
	<rect x="110" y="230" fill="#8C3F1E" width="10" height="10"/>
	<rect x="110" y="240" fill="#8C3F1E" width="10" height="10"/>
	<rect x="110" y="250" fill="#8C3F1E" width="10" height="10"/>
	<rect x="110" y="260" fill="#8C3F1E" width="10" height="10"/>
	<rect x="110" y="270" fill="#8C3F1E" width="10" height="10"/>
	<rect x="120" y="270" fill="#8C3F1E" width="10" height="10"/>
	<rect x="120" y="260" fill="#8C3F1E" width="10" height="10"/>
	<rect x="120" y="250" fill="#8C3F1E" width="10" height="10"/>
	<rect x="120" y="240" fill="#8C3F1E" width="10" height="10"/>
	<rect x="120" y="230" fill="#8C3F1E" width="10" height="10"/>
	<rect x="130" y="230" fill="#8C3F1E" width="10" height="10"/>
	<rect x="130" y="240" fill="#8C3F1E" width="10" height="10"/>
	<rect x="130" y="250" fill="#8C3F1E" width="10" height="10"/>
	<rect x="130" y="260" fill="#8C3F1E" width="10" height="10"/>
	<rect x="130" y="270" fill="#8C3F1E" width="10" height="10"/>
	<rect x="140" y="270" fill="#8C3F1E" width="10" height="10"/>
	<rect x="140" y="260" fill="#8C3F1E" width="10" height="10"/>
	<rect x="140" y="250" fill="#8C3F1E" width="10" height="10"/>
	<rect x="140" y="240" fill="#8C3F1E" width="10" height="10"/>
	<rect x="140" y="230" fill="#8C3F1E" width="10" height="10"/>
	<rect x="140" y="220" fill="#8C3F1E" width="10" height="10"/>
	<rect x="150" y="220" fill="#8C3F1E" width="10" height="10"/>
	<rect x="120" y="90" fill="#8C3F1E" width="10" height="10"/>
	<rect x="110" y="90" fill="#8C3F1E" width="10" height="10"/>
	<rect x="100" y="90" fill="#8C3F1E" width="10" height="10"/>
	<rect x="90" y="90" fill="#8C3F1E" width="10" height="10"/>
	<rect x="90" y="80" fill="#8C3F1E" width="10" height="10"/>
	<rect x="80" y="80" fill="#8C3F1E" width="10" height="10"/>
	<rect x="100" y="70" fill="#8C3F1E" width="10" height="10"/>
	<rect x="100" y="80" fill="#8C3F1E" width="10" height="10"/>
	<rect x="110" y="80" fill="#8C3F1E" width="10" height="10"/>
	<rect x="150" y="230" fill="#8C3F1E" width="10" height="10"/>
	<rect x="150" y="240" fill="#8C3F1E" width="10" height="10"/>
	<rect x="150" y="250" fill="#8C3F1E" width="10" height="10"/>
	<rect x="150" y="260" fill="#8C3F1E" width="10" height="10"/>
	<rect x="150" y="270" fill="#8C3F1E" width="10" height="10"/>
</g>
</svg>
