<?xml version="1.0" encoding="utf-8"?>
<!-- Generator: Adobe Illustrator 23.0.1, SVG Export Plug-In . SVG Version: 6.00 Build 0)  -->
<svg version="1.0" id="Layer_1" xmlns="http://www.w3.org/2000/svg" xmlns:xlink="http://www.w3.org/1999/xlink" x="0px" y="0px"
	 viewBox="0 0 140 320" enable-background="new 0 0 140 320" xml:space="preserve">
<g>
	<rect x="50" fill="#E11E26" width="10" height="10"/>
	<rect x="60" fill="#E11E26" width="10" height="10"/>
	<rect x="70" fill="#E11E26" width="10" height="10"/>
	<rect x="80" fill="#E11E26" width="10" height="10"/>
	<rect x="90" fill="#E11E26" width="10" height="10"/>
	<rect x="80" y="10" fill="#E11E26" width="10" height="10"/>
	<rect x="70" y="10" fill="#E11E26" width="10" height="10"/>
	<rect x="60" y="10" fill="#E11E26" width="10" height="10"/>
	<rect x="50" y="10" fill="#E11E26" width="10" height="10"/>
	<rect x="40" y="10" fill="#E11E26" width="10" height="10"/>
	<rect x="30" y="10" fill="#E11E26" width="10" height="10"/>
	<rect x="20" y="20" fill="#E11E26" width="10" height="10"/>
	<rect x="30" y="20" fill="#E11E26" width="10" height="10"/>
	<rect x="40" y="20" fill="#E11E26" width="10" height="10"/>
	<rect x="50" y="20" fill="#E11E26" width="10" height="10"/>
	<rect x="60" y="20" fill="#E11E26" width="10" height="10"/>
	<rect x="70" y="20" fill="#E11E26" width="10" height="10"/>
	<rect x="20" y="30" fill="#E11E26" width="10" height="10"/>
	<rect x="30" y="30" fill="#E11E26" width="10" height="10"/>
	<rect x="40" y="30" fill="#E11E26" width="10" height="10"/>
	<rect x="50" y="30" fill="#E11E26" width="10" height="10"/>
	<rect x="60" y="30" fill="#E11E26" width="10" height="10"/>
	<rect x="70" y="30" fill="#E11E26" width="10" height="10"/>
	<rect x="80" y="30" fill="#E11E26" width="10" height="10"/>
	<rect x="90" y="30" fill="#E11E26" width="10" height="10"/>
	<rect x="100" y="30" fill="#E11E26" width="10" height="10"/>
	<rect x="110" y="30" fill="#E11E26" width="10" height="10"/>
	<rect x="110" y="140" fill="#E11E26" width="10" height="10"/>
	<rect x="120" y="170" fill="#E11E26" width="10" height="10"/>
	<rect x="120" y="180" fill="#E11E26" width="10" height="10"/>
	<rect x="70" y="120" fill="#E11E26" width="10" height="10"/>
	<rect x="60" y="120" fill="#5259A7" width="10" height="10"/>
	<rect x="50" y="120" fill="#5259A7" width="10" height="10"/>
	<rect x="40" y="120" fill="#5259A7" width="10" height="10"/>
	<rect x="30" y="120" fill="#5259A7" width="10" height="10"/>
	<rect x="90" y="120" fill="#5259A7" width="10" height="10"/>
	<rect x="100" y="130" fill="#5259A7" width="10" height="10"/>
	<rect x="100" y="140" fill="#5259A7" width="10" height="10"/>
	<rect x="110" y="150" fill="#5259A7" width="10" height="10"/>
	<rect x="110" y="160" fill="#5259A7" width="10" height="10"/>
	<rect x="110" y="170" fill="#5259A7" width="10" height="10"/>
	<rect x="110" y="190" fill="#5259A7" width="10" height="10"/>
	<rect x="110" y="200" fill="#5259A7" width="10" height="10"/>
	<rect x="110" y="210" fill="#5259A7" width="10" height="10"/>
	<rect x="110" y="220" fill="#5259A7" width="10" height="10"/>
	<rect x="100" y="220" fill="#5259A7" width="10" height="10"/>
	<rect x="90" y="220" fill="#5259A7" width="10" height="10"/>
	<rect x="90" y="230" fill="#5259A7" width="10" height="10"/>
	<rect x="70" y="230" fill="#5259A7" width="10" height="10"/>
	<rect x="80" y="230" fill="#5259A7" width="10" height="10"/>
	<rect x="80" y="220" fill="#5259A7" width="10" height="10"/>
	<rect x="70" y="220" fill="#5259A7" width="10" height="10"/>
	<rect x="70" y="210" fill="#5259A7" width="10" height="10"/>
	<rect x="80" y="210" fill="#5259A7" width="10" height="10"/>
	<rect x="90" y="210" fill="#5259A7" width="10" height="10"/>
	<rect x="100" y="210" fill="#5259A7" width="10" height="10"/>
	<rect x="100" y="200" fill="#5259A7" width="10" height="10"/>
	<rect x="100" y="190" fill="#5259A7" width="10" height="10"/>
	<rect x="90" y="190" fill="#5259A7" width="10" height="10"/>
	<rect x="90" y="180" fill="#5259A7" width="10" height="10"/>
	<rect x="70" y="180" fill="#5259A7" width="10" height="10"/>
	<rect x="60" y="180" fill="#5259A7" width="10" height="10"/>
	<rect x="60" y="170" fill="#5259A7" width="10" height="10"/>
	<rect x="70" y="170" fill="#5259A7" width="10" height="10"/>
	<rect x="80" y="170" fill="#5259A7" width="10" height="10"/>
	<rect x="80" y="160" fill="#5259A7" width="10" height="10"/>
	<rect x="80" y="150" fill="#5259A7" width="10" height="10"/>
	<rect x="80" y="140" fill="#5259A7" width="10" height="10"/>
	<rect x="70" y="140" fill="#5259A7" width="10" height="10"/>
	<rect x="70" y="130" fill="#5259A7" width="10" height="10"/>
	<rect x="70" y="40" fill="#5259A7" width="10" height="10"/>
	<rect x="70" y="50" fill="#5259A7" width="10" height="10"/>
	<rect x="80" y="50" fill="#5259A7" width="10" height="10"/>
	<rect x="60" y="130" fill="#5259A7" width="10" height="10"/>
	<rect x="70" y="150" fill="#5259A7" width="10" height="10"/>
	<rect x="70" y="160" fill="#5259A7" width="10" height="10"/>
	<rect x="50" y="180" fill="#5259A7" width="10" height="10"/>
	<rect x="30" y="190" fill="#5259A7" width="10" height="10"/>
	<rect x="40" y="190" fill="#5259A7" width="10" height="10"/>
	<rect x="50" y="190" fill="#5259A7" width="10" height="10"/>
	<rect x="60" y="190" fill="#5259A7" width="10" height="10"/>
	<rect x="70" y="190" fill="#5259A7" width="10" height="10"/>
	<rect x="80" y="190" fill="#5259A7" width="10" height="10"/>
	<rect x="90" y="200" fill="#5259A7" width="10" height="10"/>
	<rect x="80" y="200" fill="#5259A7" width="10" height="10"/>
	<rect x="70" y="200" fill="#5259A7" width="10" height="10"/>
	<rect x="60" y="200" fill="#5259A7" width="10" height="10"/>
	<rect x="50" y="200" fill="#5259A7" width="10" height="10"/>
	<rect x="40" y="200" fill="#5259A7" width="10" height="10"/>
	<rect x="40" y="210" fill="#5259A7" width="10" height="10"/>
	<rect x="40" y="220" fill="#5259A7" width="10" height="10"/>
	<rect x="50" y="220" fill="#5259A7" width="10" height="10"/>
	<rect x="50" y="230" fill="#5259A7" width="10" height="10"/>
	<rect x="50" y="240" fill="#5259A7" width="10" height="10"/>
	<rect x="50" y="250" fill="#5259A7" width="10" height="10"/>
	<rect x="50" y="260" fill="#5259A7" width="10" height="10"/>
	<rect x="50" y="270" fill="#5259A7" width="10" height="10"/>
	<rect x="50" y="280" fill="#5259A7" width="10" height="10"/>
	<rect x="40" y="230" fill="#5259A7" width="10" height="10"/>
	<rect x="30" y="200" fill="#5259A7" width="10" height="10"/>
	<rect x="50" y="210" fill="#5259A7" width="10" height="10"/>
	<rect x="60" y="210" fill="#5259A7" width="10" height="10"/>
	<rect x="60" y="220" fill="#5259A7" width="10" height="10"/>
	<rect x="60" y="230" fill="#5259A7" width="10" height="10"/>
	<rect x="80" y="120" fill="#E11E26" width="10" height="10"/>
	<rect x="80" y="130" fill="#E11E26" width="10" height="10"/>
	<rect x="90" y="130" fill="#E11E26" width="10" height="10"/>
	<rect x="90" y="140" fill="#E11E26" width="10" height="10"/>
	<rect x="90" y="150" fill="#E11E26" width="10" height="10"/>
	<rect x="90" y="160" fill="#E11E26" width="10" height="10"/>
	<rect x="90" y="170" fill="#E11E26" width="10" height="10"/>
	<rect x="100" y="170" fill="#E11E26" width="10" height="10"/>
	<rect x="100" y="180" fill="#E11E26" width="10" height="10"/>
	<rect x="100" y="160" fill="#E11E26" width="10" height="10"/>
	<rect x="100" y="150" fill="#E11E26" width="10" height="10"/>
	<rect x="120" y="30" fill="#E11E26" width="10" height="10"/>
	<rect x="90" y="10" fill="#FCED00" width="10" height="10"/>
	<rect x="90" y="20" fill="#FCED00" width="10" height="10"/>
	<rect x="80" y="20" fill="#FCED00" width="10" height="10"/>
	<rect x="20" y="40" fill="#8C3F1E" width="10" height="10"/>
	<rect x="30" y="40" fill="#8C3F1E" width="10" height="10"/>
	<rect x="40" y="40" fill="#8C3F1E" width="10" height="10"/>
	<rect x="40" y="50" fill="#8C3F1E" width="10" height="10"/>
	<rect x="40" y="60" fill="#8C3F1E" width="10" height="10"/>
	<rect x="40" y="70" fill="#8C3F1E" width="10" height="10"/>
	<rect x="50" y="70" fill="#8C3F1E" width="10" height="10"/>
	<rect x="50" y="60" fill="#8C3F1E" width="10" height="10"/>
	<rect x="10" y="50" fill="#8C3F1E" width="10" height="10"/>
	<rect x="10" y="60" fill="#8C3F1E" width="10" height="10"/>
	<rect x="10" y="70" fill="#8C3F1E" width="10" height="10"/>
	<rect x="10" y="80" fill="#8C3F1E" width="10" height="10"/>
	<rect x="10" y="90" fill="#8C3F1E" width="10" height="10"/>
	<rect y="90" fill="#8C3F1E" width="10" height="10"/>
	<rect y="80" fill="#8C3F1E" width="10" height="10"/>
	<rect y="70" fill="#8C3F1E" width="10" height="10"/>
	<rect x="20" y="90" fill="#8C3F1E" width="10" height="10"/>
	<rect x="20" y="100" fill="#8C3F1E" width="10" height="10"/>
	<rect x="30" y="100" fill="#8C3F1E" width="10" height="10"/>
	<rect x="40" y="110" fill="#8C3F1E" width="10" height="10"/>
	<rect x="50" y="110" fill="#8C3F1E" width="10" height="10"/>
	<rect x="60" y="110" fill="#8C3F1E" width="10" height="10"/>
	<rect x="40" y="100" fill="#FCC288" width="10" height="10"/>
	<rect x="20" y="50" fill="#FCC288" width="10" height="10"/>
	<rect x="30" y="50" fill="#FCC288" width="10" height="10"/>
	<rect x="30" y="60" fill="#FCC288" width="10" height="10"/>
	<rect x="20" y="60" fill="#FCC288" width="10" height="10"/>
	<rect x="20" y="70" fill="#FCC288" width="10" height="10"/>
	<rect x="30" y="70" fill="#FCC288" width="10" height="10"/>
	<rect x="30" y="80" fill="#FCC288" width="10" height="10"/>
	<rect x="20" y="80" fill="#FCC288" width="10" height="10"/>
	<rect x="30" y="90" fill="#FCC288" width="10" height="10"/>
	<rect x="40" y="90" fill="#FCC288" width="10" height="10"/>
	<rect x="40" y="80" fill="#FCC288" width="10" height="10"/>
	<rect x="50" y="80" fill="#FCC288" width="10" height="10"/>
	<rect x="50" y="90" fill="#FCC288" width="10" height="10"/>
	<rect x="50" y="100" fill="#FCC288" width="10" height="10"/>
	<rect x="60" y="100" fill="#FCC288" width="10" height="10"/>
	<rect x="60" y="90" fill="#FCC288" width="10" height="10"/>
	<rect x="60" y="80" fill="#FCC288" width="10" height="10"/>
	<rect x="60" y="70" fill="#FCC288" width="10" height="10"/>
	<rect x="60" y="60" fill="#FCC288" width="10" height="10"/>
	<rect x="60" y="50" fill="#FCC288" width="10" height="10"/>
	<rect x="50" y="50" fill="#FCC288" width="10" height="10"/>
	<rect x="50" y="40" fill="#FCC288" width="10" height="10"/>
	<rect x="60" y="40" fill="#FCC288" width="10" height="10"/>
	<rect x="80" y="40" fill="#FCC288" width="10" height="10"/>
	<rect x="90" y="40" fill="#FCC288" width="10" height="10"/>
	<rect x="100" y="40" fill="#FCC288" width="10" height="10"/>
	<rect x="90" y="50" fill="#FCC288" width="10" height="10"/>
	<rect x="100" y="50" fill="#FCC288" width="10" height="10"/>
	<rect x="110" y="50" fill="#FCC288" width="10" height="10"/>
	<rect x="120" y="50" fill="#FCC288" width="10" height="10"/>
	<rect x="130" y="60" fill="#FCC288" width="10" height="10"/>
	<rect x="120" y="60" fill="#FCC288" width="10" height="10"/>
	<rect x="120" y="70" fill="#FCC288" width="10" height="10"/>
	<rect x="130" y="70" fill="#FCC288" width="10" height="10"/>
	<rect x="110" y="60" fill="#FCC288" width="10" height="10"/>
	<rect x="100" y="60" fill="#FCC288" width="10" height="10"/>
	<rect x="90" y="60" fill="#FCC288" width="10" height="10"/>
	<rect x="80" y="60" fill="#FCC288" width="10" height="10"/>
	<rect x="70" y="60" fill="#FCC288" width="10" height="10"/>
	<rect x="70" y="70" fill="#FCC288" width="10" height="10"/>
	<rect x="80" y="70" fill="#FCC288" width="10" height="10"/>
	<rect x="100" y="70" fill="#FCC288" width="10" height="10"/>
	<rect x="110" y="70" fill="#FCC288" width="10" height="10"/>
	<rect x="70" y="90" fill="#FCC288" width="10" height="10"/>
	<rect x="70" y="100" fill="#FCC288" width="10" height="10"/>
	<rect x="70" y="110" fill="#FCC288" width="10" height="10"/>
	<rect x="80" y="110" fill="#FCC288" width="10" height="10"/>
	<rect x="80" y="100" fill="#FCC288" width="10" height="10"/>
	<rect x="90" y="100" fill="#FCC288" width="10" height="10"/>
	<rect x="100" y="100" fill="#FCC288" width="10" height="10"/>
	<rect x="110" y="100" fill="#FCC288" width="10" height="10"/>
	<g>
		<rect x="20" y="140" transform="matrix(6.123234e-17 -1 1 6.123234e-17 -120 170)" fill="#E11E26" width="10" height="10"/>
		<rect x="20" y="150" transform="matrix(6.123234e-17 -1 1 6.123234e-17 -130 180)" fill="#E11E26" width="10" height="10"/>
		<rect x="20" y="160" transform="matrix(6.123234e-17 -1 1 6.123234e-17 -140 190)" fill="#E11E26" width="10" height="10"/>
		<rect x="20" y="170" transform="matrix(6.123234e-17 -1 1 6.123234e-17 -150 200)" fill="#E11E26" width="10" height="10"/>
		<rect x="30" y="180" transform="matrix(6.123234e-17 -1 1 6.123234e-17 -150 220)" fill="#E11E26" width="10" height="10"/>
		<rect x="30" y="170" transform="matrix(6.123234e-17 -1 1 6.123234e-17 -140 210)" fill="#E11E26" width="10" height="10"/>
		<rect x="30" y="160" transform="matrix(6.123234e-17 -1 1 6.123234e-17 -130 200)" fill="#E11E26" width="10" height="10"/>
		<rect x="30" y="150" transform="matrix(6.123234e-17 -1 1 6.123234e-17 -120 190)" fill="#E11E26" width="10" height="10"/>
		<rect x="30" y="140" transform="matrix(6.123234e-17 -1 1 6.123234e-17 -110 180)" fill="#E11E26" width="10" height="10"/>
		<rect x="30" y="130" transform="matrix(6.123234e-17 -1 1 6.123234e-17 -100 170)" fill="#E11E26" width="10" height="10"/>
		<rect x="40" y="130" transform="matrix(6.123234e-17 -1 1 6.123234e-17 -90 180)" fill="#E11E26" width="10" height="10"/>
		<rect x="50" y="130" transform="matrix(6.123234e-17 -1 1 6.123234e-17 -80 190)" fill="#E11E26" width="10" height="10"/>
		<rect x="40" y="140" transform="matrix(6.123234e-17 -1 1 6.123234e-17 -100 190)" fill="#E11E26" width="10" height="10"/>
		<rect x="40" y="150" transform="matrix(6.123234e-17 -1 1 6.123234e-17 -110 200)" fill="#E11E26" width="10" height="10"/>
		<rect x="40" y="160" transform="matrix(6.123234e-17 -1 1 6.123234e-17 -120 210)" fill="#E11E26" width="10" height="10"/>
		<rect x="40" y="170" transform="matrix(6.123234e-17 -1 1 6.123234e-17 -130 220)" fill="#E11E26" width="10" height="10"/>
		<rect x="40" y="180" transform="matrix(6.123234e-17 -1 1 6.123234e-17 -140 230)" fill="#E11E26" width="10" height="10"/>
		<rect x="40" y="190" transform="matrix(6.123234e-17 -1 1 6.123234e-17 -150 240)" fill="#E11E26" width="10" height="10"/>
		<rect x="50" y="190" transform="matrix(6.123234e-17 -1 1 6.123234e-17 -140 250)" fill="#E11E26" width="10" height="10"/>
		<rect x="50" y="180" transform="matrix(6.123234e-17 -1 1 6.123234e-17 -130 240)" fill="#E11E26" width="10" height="10"/>
		<rect x="50" y="170" transform="matrix(6.123234e-17 -1 1 6.123234e-17 -120 230)" fill="#E11E26" width="10" height="10"/>
		<rect x="50" y="160" transform="matrix(6.123234e-17 -1 1 6.123234e-17 -110 220)" fill="#E11E26" width="10" height="10"/>
		<rect x="50" y="150" transform="matrix(6.123234e-17 -1 1 6.123234e-17 -100 210)" fill="#E11E26" width="10" height="10"/>
		<rect x="50" y="140" transform="matrix(6.123234e-17 -1 1 6.123234e-17 -90 200)" fill="#E11E26" width="10" height="10"/>
		<rect x="60" y="140" transform="matrix(6.123234e-17 -1 1 6.123234e-17 -80 210)" fill="#E11E26" width="10" height="10"/>
		<rect x="60" y="150" transform="matrix(6.123234e-17 -1 1 6.123234e-17 -90 220)" fill="#E11E26" width="10" height="10"/>
		<rect x="60" y="160" transform="matrix(6.123234e-17 -1 1 6.123234e-17 -100 230)" fill="#E11E26" width="10" height="10"/>
		<rect x="60" y="170" transform="matrix(6.123234e-17 -1 1 6.123234e-17 -110 240)" fill="#E11E26" width="10" height="10"/>
		<rect x="60" y="180" transform="matrix(6.123234e-17 -1 1 6.123234e-17 -120 250)" fill="#E11E26" width="10" height="10"/>
		<rect x="60" y="190" transform="matrix(6.123234e-17 -1 1 6.123234e-17 -130 260)" fill="#E11E26" width="10" height="10"/>
		<rect x="70" y="190" transform="matrix(6.123234e-17 -1 1 6.123234e-17 -120 270)" fill="#E11E26" width="10" height="10"/>
		<rect x="70" y="200" transform="matrix(6.123234e-17 -1 1 6.123234e-17 -130 280)" fill="#E11E26" width="10" height="10"/>
		<rect x="70" y="180" transform="matrix(6.123234e-17 -1 1 6.123234e-17 -110 260)" fill="#E11E26" width="10" height="10"/>
		<rect x="70" y="170" transform="matrix(6.123234e-17 -1 1 6.123234e-17 -100 250)" fill="#E11E26" width="10" height="10"/>
		<rect x="70" y="160" transform="matrix(6.123234e-17 -1 1 6.123234e-17 -90 240)" fill="#E11E26" width="10" height="10"/>
		<rect x="70" y="150" transform="matrix(6.123234e-17 -1 1 6.123234e-17 -80 230)" fill="#E11E26" width="10" height="10"/>
		<rect x="80" y="170" transform="matrix(6.123234e-17 -1 1 6.123234e-17 -90 260)" fill="#E11E26" width="10" height="10"/>
		<rect x="80" y="180" transform="matrix(6.123234e-17 -1 1 6.123234e-17 -100 270)" fill="#E11E26" width="10" height="10"/>
		<rect x="80" y="190" transform="matrix(6.123234e-17 -1 1 6.123234e-17 -110 280)" fill="#E11E26" width="10" height="10"/>
		<rect x="80" y="200" transform="matrix(6.123234e-17 -1 1 6.123234e-17 -120 290)" fill="#E11E26" width="10" height="10"/>
		<rect x="90" y="160" transform="matrix(6.123234e-17 -1 1 6.123234e-17 -70 260)" fill="#FCC288" width="10" height="10"/>
		<rect x="90" y="170" transform="matrix(6.123234e-17 -1 1 6.123234e-17 -80 270)" fill="#FCC288" width="10" height="10"/>
		<rect x="90" y="180" transform="matrix(6.123234e-17 -1 1 6.123234e-17 -90 280)" fill="#FCC288" width="10" height="10"/>
		<rect x="90" y="190" transform="matrix(6.123234e-17 -1 1 6.123234e-17 -100 290)" fill="#FCC288" width="10" height="10"/>
		<rect x="90" y="200" transform="matrix(6.123234e-17 -1 1 6.123234e-17 -110 300)" fill="#FCC288" width="10" height="10"/>
		<rect x="100" y="200" transform="matrix(6.123234e-17 -1 1 6.123234e-17 -100 310)" fill="#FCC288" width="10" height="10"/>
		<rect x="100" y="190" transform="matrix(6.123234e-17 -1 1 6.123234e-17 -90 300)" fill="#FCC288" width="10" height="10"/>
		<rect x="100" y="180" transform="matrix(6.123234e-17 -1 1 6.123234e-17 -80 290)" fill="#FCC288" width="10" height="10"/>
		<rect x="100" y="170" transform="matrix(6.123234e-17 -1 1 6.123234e-17 -70 280)" fill="#FCC288" width="10" height="10"/>
		<rect x="100" y="160" transform="matrix(6.123234e-17 -1 1 6.123234e-17 -60 270)" fill="#FCC288" width="10" height="10"/>
		<rect x="110" y="160" transform="matrix(6.123234e-17 -1 1 6.123234e-17 -50 280)" fill="#FCC288" width="10" height="10"/>
		<rect x="110" y="200" transform="matrix(6.123234e-17 -1 1 6.123234e-17 -90 320)" fill="#FCC288" width="10" height="10"/>
		<rect x="110" y="190" transform="matrix(6.123234e-17 -1 1 6.123234e-17 -80 310)" fill="#FCC288" width="10" height="10"/>
		<rect x="110" y="180" transform="matrix(6.123234e-17 -1 1 6.123234e-17 -70 300)" fill="#FCC288" width="10" height="10"/>
		<rect x="110" y="170" transform="matrix(6.123234e-17 -1 1 6.123234e-17 -60 290)" fill="#FCC288" width="10" height="10"/>
		<rect x="120" y="170" transform="matrix(6.123234e-17 -1 1 6.123234e-17 -50 300)" fill="#FCC288" width="10" height="10"/>
		<rect x="120" y="180" transform="matrix(6.123234e-17 -1 1 6.123234e-17 -60 310)" fill="#FCC288" width="10" height="10"/>
		<rect x="120" y="190" transform="matrix(6.123234e-17 -1 1 6.123234e-17 -70 320)" fill="#FCC288" width="10" height="10"/>
	</g>
	<g>
		<rect x="60" y="260" transform="matrix(6.123234e-17 -1 1 6.123234e-17 -200 330)" fill="#5259A7" width="10" height="10"/>
		<rect x="60" y="250" transform="matrix(1.821378e-13 -1 1 1.821378e-13 -190 320)" fill="#5259A7" width="10" height="10"/>
		<rect x="60" y="240" transform="matrix(-1.820153e-13 -1 1 -1.820153e-13 -180 310)" fill="#5259A7" width="10" height="10"/>
		<rect x="70" y="240" transform="matrix(6.123234e-17 -1 1 6.123234e-17 -170 320)" fill="#5259A7" width="10" height="10"/>
		<rect x="70" y="250" transform="matrix(6.123234e-17 -1 1 6.123234e-17 -180 330)" fill="#5259A7" width="10" height="10"/>
		<rect x="60" y="280" transform="matrix(1.821378e-13 -1 1 1.821378e-13 -220 350)" fill="#5259A7" width="10" height="10"/>
		<rect x="60" y="270" transform="matrix(1.821378e-13 -1 1 1.821378e-13 -210 340)" fill="#5259A7" width="10" height="10"/>
		<rect x="70" y="280" transform="matrix(6.123234e-17 -1 1 6.123234e-17 -210 360)" fill="#5259A7" width="10" height="10"/>
		<rect x="80" y="280" transform="matrix(-1.820153e-13 -1 1 -1.820153e-13 -200 370)" fill="#5259A7" width="10" height="10"/>
		<rect x="80" y="270" transform="matrix(1.821378e-13 -1 1 1.821378e-13 -190 360)" fill="#5259A7" width="10" height="10"/>
		<rect x="90" y="270" transform="matrix(-1.820153e-13 -1 1 -1.820153e-13 -180 370)" fill="#5259A7" width="10" height="10"/>
		<rect x="90" y="260" transform="matrix(6.123234e-17 -1 1 6.123234e-17 -170 360)" fill="#5259A7" width="10" height="10"/>
		<rect x="100" y="260" transform="matrix(6.123234e-17 -1 1 6.123234e-17 -160 370)" fill="#5259A7" width="10" height="10"/>
		<rect x="90" y="250" transform="matrix(1.821378e-13 -1 1 1.821378e-13 -160 350)" fill="#5259A7" width="10" height="10"/>
		<rect x="90" y="240" transform="matrix(-1.820153e-13 -1 1 -1.820153e-13 -150 340)" fill="#5259A7" width="10" height="10"/>
		<rect x="80" y="240" transform="matrix(-1.820153e-13 -1 1 -1.820153e-13 -160 330)" fill="#5259A7" width="10" height="10"/>
		<rect x="80" y="260" transform="matrix(6.123234e-17 -1 1 6.123234e-17 -180 350)" fill="#5259A7" width="10" height="10"/>
		<rect x="70" y="270" transform="matrix(6.123234e-17 -1 1 6.123234e-17 -200 350)" fill="#5259A7" width="10" height="10"/>
		<rect x="70" y="290" transform="matrix(6.123234e-17 -1 1 6.123234e-17 -220 370)" fill="#8C3F1E" width="10" height="10"/>
		<rect x="60" y="290" transform="matrix(6.123234e-17 -1 1 6.123234e-17 -230 360)" fill="#8C3F1E" width="10" height="10"/>
		<rect x="80" y="290" transform="matrix(6.123234e-17 -1 1 6.123234e-17 -210 380)" fill="#8C3F1E" width="10" height="10"/>
		<rect x="70" y="300" transform="matrix(1.821378e-13 -1 1 1.821378e-13 -230 380)" fill="#8C3F1E" width="10" height="10"/>
		<rect x="70" y="310" transform="matrix(-1.820153e-13 -1 1 -1.820153e-13 -240 390)" fill="#8C3F1E" width="10" height="10"/>
		<rect x="60" y="310" transform="matrix(-1.820153e-13 -1 1 -1.820153e-13 -250 380)" fill="#8C3F1E" width="10" height="10"/>
		<rect x="50" y="300" transform="matrix(-1.820153e-13 -1 1 -1.820153e-13 -250 360)" fill="#8C3F1E" width="10" height="10"/>
		<rect x="50" y="290" transform="matrix(-1.820153e-13 -1 1 -1.820153e-13 -240 350)" fill="#8C3F1E" width="10" height="10"/>
		<rect x="60" y="300" transform="matrix(-1.820153e-13 -1 1 -1.820153e-13 -240 370)" fill="#8C3F1E" width="10" height="10"/>
		<rect x="80" y="310" transform="matrix(1.821378e-13 -1 1 1.821378e-13 -230 400)" fill="#8C3F1E" width="10" height="10"/>
		<rect x="80" y="300" transform="matrix(-1.820153e-13 -1 1 -1.820153e-13 -220 390)" fill="#8C3F1E" width="10" height="10"/>
		<rect x="90" y="290" transform="matrix(6.123234e-17 -1 1 6.123234e-17 -200 390)" fill="#8C3F1E" width="10" height="10"/>
		<rect x="90" y="280" transform="matrix(1.821378e-13 -1 1 1.821378e-13 -190 380)" fill="#8C3F1E" width="10" height="10"/>
		<rect x="60" y="250" transform="matrix(-1.820153e-13 -1 1 -1.820153e-13 -190 320)" fill="#8C3F1E" width="10" height="10"/>
		<rect x="70" y="260" transform="matrix(6.123234e-17 -1 1 6.123234e-17 -190 340)" fill="#8C3F1E" width="10" height="10"/>
		<rect x="80" y="250" transform="matrix(-1.820153e-13 -1 1 -1.820153e-13 -170 340)" fill="#8C3F1E" width="10" height="10"/>
		<rect x="90" y="250" transform="matrix(1.821378e-13 -1 1 1.821378e-13 -160 350)" fill="#8C3F1E" width="10" height="10"/>
		<rect x="100" y="280" transform="matrix(6.123234e-17 -1 1 6.123234e-17 -180 390)" fill="#8C3F1E" width="10" height="10"/>
		<rect x="100" y="290" transform="matrix(6.123234e-17 -1 1 6.123234e-17 -190 400)" fill="#8C3F1E" width="10" height="10"/>
		<rect x="100" y="300" transform="matrix(6.123234e-17 -1 1 6.123234e-17 -200 410)" fill="#8C3F1E" width="10" height="10"/>
		<rect x="100" y="310" transform="matrix(6.123234e-17 -1 1 6.123234e-17 -210 420)" fill="#8C3F1E" width="10" height="10"/>
		<rect x="110" y="310" transform="matrix(6.123234e-17 -1 1 6.123234e-17 -200 430)" fill="#8C3F1E" width="10" height="10"/>
		<rect x="120" y="310" transform="matrix(6.123234e-17 -1 1 6.123234e-17 -190 440)" fill="#8C3F1E" width="10" height="10"/>
		<rect x="120" y="300" transform="matrix(6.123234e-17 -1 1 6.123234e-17 -180 430)" fill="#8C3F1E" width="10" height="10"/>
		<rect x="90" y="300" transform="matrix(6.123234e-17 -1 1 6.123234e-17 -210 400)" fill="#8C3F1E" width="10" height="10"/>
		<rect x="90" y="310" transform="matrix(6.123234e-17 -1 1 6.123234e-17 -220 410)" fill="#8C3F1E" width="10" height="10"/>
		<rect x="100" y="270" transform="matrix(6.123234e-17 -1 1 6.123234e-17 -170 380)" fill="#8C3F1E" width="10" height="10"/>
		<rect x="110" y="290" transform="matrix(6.123234e-17 -1 1 6.123234e-17 -180 410)" fill="#8C3F1E" width="10" height="10"/>
		<rect x="110" y="300" transform="matrix(1.821378e-13 -1 1 1.821378e-13 -190 420)" fill="#8C3F1E" width="10" height="10"/>
	</g>
	<rect x="110" y="90" fill="#8C3F1E" width="10" height="10"/>
	<rect x="100" y="90" fill="#8C3F1E" width="10" height="10"/>
	<rect x="90" y="90" fill="#8C3F1E" width="10" height="10"/>
	<rect x="80" y="90" fill="#8C3F1E" width="10" height="10"/>
	<rect x="80" y="80" fill="#8C3F1E" width="10" height="10"/>
	<rect x="70" y="80" fill="#8C3F1E" width="10" height="10"/>
	<rect x="90" y="70" fill="#8C3F1E" width="10" height="10"/>
	<rect x="90" y="80" fill="#8C3F1E" width="10" height="10"/>
	<rect x="100" y="80" fill="#8C3F1E" width="10" height="10"/>
</g>
</svg>
